<?xml version="1.0" encoding="UTF-8"?>
<svg width="35px" height="46px" viewBox="0 0 35 46" version="1.1" xmlns="http://www.w3.org/2000/svg" xmlns:xlink="http://www.w3.org/1999/xlink">
    <!-- Generator: Sketch 52.6 (67491) - http://www.bohemiancoding.com/sketch -->
    <title>logo-4</title>
    <desc>Created with Sketch.</desc>
    <g id="Page-1" stroke="none" stroke-width="1" fill="none" fill-rule="evenodd">
        <g id="logo-4">
            <path d="M5.75,31.625 L5.75,28.75 L8.625,28.75 L8.625,31.625 L5.75,31.625 Z M11.5,40.25 L11.5,25.875 L2.875,25.875 L2.875,40.25 L5.75,40.25 L5.75,34.5 L8.625,34.5 L8.625,40.25 L11.5,40.25 Z M0,43.125 L0,23 L14.375,23 L14.375,43.125 L0,43.125 Z M23,40.25 L23,34.5 L28.75,34.5 L28.75,31.625 L23,31.625 L23,28.75 L28.75,28.75 L28.75,25.875 L20.125,25.875 L20.125,40.25 L23,40.25 Z M17.25,43.125 L17.25,23 L31.625,23 L31.625,37.375 L25.875,37.375 L25.875,43.125 L17.25,43.125 Z" id="AF-Copy" fill="#52344f"></path>
            <path d="M5.75,17.25 L5.75,11.5 L11.5,11.5 L11.5,8.625 L5.75,8.625 L5.75,5.75 L11.5,5.75 L11.5,2.875 L2.875,2.875 L2.875,17.25 L5.75,17.25 Z M0,20.125 L0,0 L14.375,0 L14.375,14.375 L8.625,14.375 L8.625,20.125 L0,20.125 Z M23,8.625 L23,5.75 L25.875,5.75 L25.875,8.625 L23,8.625 Z M28.75,17.25 L28.75,2.875 L20.125,2.875 L20.125,17.25 L23,17.25 L23,11.5 L25.875,11.5 L25.875,17.25 L28.75,17.25 Z M17.25,20.125 L17.25,0 L31.625,0 L31.625,20.125 L17.25,20.125 Z" id="FA-Copy" fill="#52344f"></path>
            <rect id="Rectangle-Copy" fill="#77AAAD" transform="translate(16.111440, 20.877133) rotate(-8.000000) translate(-16.111440, -20.877133) " x="6.11144034" y="19.3771331" width="20" height="3"></rect>
            <rect id="Rectangle-Copy-2" fill="#FA9579" x="29" y="40" width="6" height="6"></rect>
        </g>
    </g>
</svg>